{"accessors" : [{"bufferView" : 0, "byteOffset" : 0, "componentType" : 5123, "count" : 4431, "type" : "SCALAR", "max" : [3873], "min" : [0]}, {"bufferView" : 1, "byteOffset" : 0, "componentType" : 5126, "count" : 3874, "type" : "VEC3", "max" : [1749.2730712890625, 1280.3624267578125, -432.78857421875], "min" : [1749.27294921875, 247.92491149902344, -3476.1474609375], "name" : "POSITION"}, {"bufferView" : 1, "byteOffset" : 12, "componentType" : 5126, "count" : 3874, "type" : "VEC2", "max" : [1, -0], "min" : [0, -1], "name" : "TEXCOORD_0"}, {"bufferView" : 1, "byteOffset" : 20, "componentType" : 5126, "count" : 3874, "type" : "VEC3", "max" : [-1.0000044107437134, 0, -0], "min" : [-1.0000044107437134, 0, -0], "name" : "NORMAL"}, {"bufferView" : 0, "byteOffset" : 8864, "componentType" : 5123, "count" : 3000, "type" : "SCALAR", "max" : [2499], "min" : [0]}, {"bufferView" : 2, "byteOffset" : 0, "componentType" : 5126, "count" : 2500, "type" : "VEC3", "max" : [1958.2730712890625, 1280.3624267578125, -432.78857421875], "min" : [1749.27294921875, 247.92491149902344, -3476.1474609375], "name" : "POSITION"}, {"bufferView" : 2, "byteOffset" : 12, "componentType" : 5126, "count" : 2500, "type" : "VEC2", "max" : [1, -0], "min" : [0, -1], "name" : "TEXCOORD_0"}, {"bufferView" : 2, "byteOffset" : 20, "componentType" : 5126, "count" : 2500, "type" : "VEC3", "max" : [0, 1.0000044107437134, 1.0000044107437134], "min" : [0, -1.0000044107437134, -1.0000044107437134], "name" : "NORMAL"}, {"bufferView" : 0, "byteOffset" : 14864, "componentType" : 5123, "count" : 3, "type" : "SCALAR", "max" : [0], "min" : [0]}, {"bufferView" : 3, "byteOffset" : 0, "componentType" : 5126, "count" : 1, "type" : "VEC3", "max" : [1749.2730712890625, 303.6624450683594, -3205.10888671875], "min" : [1749.2730712890625, 303.6624450683594, -3205.10888671875], "name" : "POSITION"}, {"bufferView" : 3, "byteOffset" : 12, "componentType" : 5126, "count" : 1, "type" : "VEC2", "max" : [0.0890590026974678, -0.05398600175976753], "min" : [0.0890590026974678, -0.05398600175976753], "name" : "TEXCOORD_0"}, {"bufferView" : 3, "byteOffset" : 20, "componentType" : 5126, "count" : 1, "type" : "VEC3", "max" : [-1.0000044107437134, 0, -0], "min" : [-1.0000044107437134, 0, -0], "name" : "NORMAL"}, {"bufferView" : 0, "byteOffset" : 14872, "componentType" : 5123, "count" : 4428, "type" : "SCALAR", "max" : [3869], "min" : [0]}, {"bufferView" : 4, "byteOffset" : 0, "componentType" : 5126, "count" : 3870, "type" : "VEC3", "max" : [1958.2730712890625, 1280.3624267578125, -432.78857421875], "min" : [1958.27294921875, 247.92491149902344, -3476.1474609375], "name" : "POSITION"}, {"bufferView" : 4, "byteOffset" : 12, "componentType" : 5126, "count" : 3870, "type" : "VEC2", "max" : [1, -0], "min" : [0, -1], "name" : "TEXCOORD_0"}, {"bufferView" : 4, "byteOffset" : 20, "componentType" : 5126, "count" : 3870, "type" : "VEC3", "max" : [1.0000044107437134, 0, 0], "min" : [1.0000044107437134, 0, 0], "name" : "NORMAL"}], "asset" : {"generator" : "Aspose.3D 23.2", "version" : "2.0"}, "buffers" : [{"uri" : "data:application/octet-stream;base64,", "byteLength" : 403332}], "bufferViews" : [{"buffer" : 0, "byteOffset" : 0, "byteLength" : 23728, "target" : 34963}, {"buffer" : 0, "byteOffset" : 23732, "byteLength" : 141792, "byteStride" : 32, "target" : 34962}, {"buffer" : 0, "byteOffset" : 165528, "byteLength" : 96000, "byteStride" : 32, "target" : 34962}, {"buffer" : 0, "byteOffset" : 261532, "byteLength" : 96, "byteStride" : 32, "target" : 34962}, {"buffer" : 0, "byteOffset" : 261632, "byteLength" : 141696, "byteStride" : 32, "target" : 34962}], "meshes" : [{"primitives" : [{"attributes" : {"POSITION" : 1, "TEXCOORD_0" : 2, "NORMAL" : 3}, "indices" : 0, "mode" : 4}, {"attributes" : {"POSITION" : 5, "TEXCOORD_0" : 6, "NORMAL" : 7}, "indices" : 4, "mode" : 4}, {"attributes" : {"POSITION" : 9, "TEXCOORD_0" : 10, "NORMAL" : 11}, "indices" : 8, "mode" : 4}, {"attributes" : {"POSITION" : 13, "TEXCOORD_0" : 14, "NORMAL" : 15}, "indices" : 12, "mode" : 4}], "name" : ""}], "nodes" : [{"mesh" : 0, "name" : ""}], "scene" : 0, "scenes" : [{"nodes" : [0]}]}