{"accessors" : [{"bufferView" : 0, "byteOffset" : 0, "componentType" : 5123, "count" : 5232, "type" : "SCALAR", "max" : [4553], "min" : [0]}, {"bufferView" : 1, "byteOffset" : 0, "componentType" : 5126, "count" : 4554, "type" : "VEC3", "max" : [2089.76220703125, 620.9963989257812, -220.79122924804688], "min" : [87.60150146484375, 69.018310546875, -220.79122924804688], "name" : "POSITION"}, {"bufferView" : 1, "byteOffset" : 12, "componentType" : 5126, "count" : 4554, "type" : "VEC2", "max" : [1, -0], "min" : [0, -1], "name" : "TEXCOORD_0"}, {"bufferView" : 1, "byteOffset" : 20, "componentType" : 5126, "count" : 4554, "type" : "VEC3", "max" : [0, 0, 1.0000044107437134], "min" : [0, 0, 1.0000044107437134], "name" : "NORMAL"}, {"bufferView" : 0, "byteOffset" : 10464, "componentType" : 5123, "count" : 3528, "type" : "SCALAR", "max" : [2939], "min" : [0]}, {"bufferView" : 2, "byteOffset" : 0, "componentType" : 5126, "count" : 2940, "type" : "VEC3", "max" : [2089.76220703125, 620.9963989257812, -220.79122924804688], "min" : [87.60150146484375, 69.018310546875, -331.1868591308594], "name" : "POSITION"}, {"bufferView" : 2, "byteOffset" : 12, "componentType" : 5126, "count" : 2940, "type" : "VEC2", "max" : [1, -0], "min" : [0, -1], "name" : "TEXCOORD_0"}, {"bufferView" : 2, "byteOffset" : 20, "componentType" : 5126, "count" : 2940, "type" : "VEC3", "max" : [1.0000044107437134, 0.9999976754188538, 0], "min" : [-1.0000044107437134, -1.0000044107437134, 0], "name" : "NORMAL"}, {"bufferView" : 0, "byteOffset" : 17520, "componentType" : 5123, "count" : 3, "type" : "SCALAR", "max" : [0], "min" : [0]}, {"bufferView" : 3, "byteOffset" : 0, "componentType" : 5126, "count" : 1, "type" : "VEC3", "max" : [311.3760070800781, 79.3414306640625, -220.79122924804688], "min" : [311.3760070800781, 79.3414306640625, -220.79122924804688], "name" : "POSITION"}, {"bufferView" : 3, "byteOffset" : 12, "componentType" : 5126, "count" : 1, "type" : "VEC2", "max" : [0.1117670014500618, -0.018702000379562378], "min" : [0.1117670014500618, -0.018702000379562378], "name" : "TEXCOORD_0"}, {"bufferView" : 3, "byteOffset" : 20, "componentType" : 5126, "count" : 1, "type" : "VEC3", "max" : [0, 0, 1.0000044107437134], "min" : [0, 0, 1.0000044107437134], "name" : "NORMAL"}, {"bufferView" : 0, "byteOffset" : 17528, "componentType" : 5123, "count" : 5229, "type" : "SCALAR", "max" : [4563], "min" : [0]}, {"bufferView" : 4, "byteOffset" : 0, "componentType" : 5126, "count" : 4564, "type" : "VEC3", "max" : [2089.76220703125, 620.9963989257812, -331.1868591308594], "min" : [87.60150146484375, 69.018310546875, -331.1868591308594], "name" : "POSITION"}, {"bufferView" : 4, "byteOffset" : 12, "componentType" : 5126, "count" : 4564, "type" : "VEC2", "max" : [1, -0], "min" : [0, -1], "name" : "TEXCOORD_0"}, {"bufferView" : 4, "byteOffset" : 20, "componentType" : 5126, "count" : 4564, "type" : "VEC3", "max" : [0, 0, -1.0000044107437134], "min" : [0, 0, -1.0000044107437134], "name" : "NORMAL"}], "asset" : {"generator" : "Aspose.3D 23.2", "version" : "2.0"}, "buffers" : [{"uri" : "data:application/octet-stream;base64,", "byteLength" : 475752}], "bufferViews" : [{"buffer" : 0, "byteOffset" : 0, "byteLength" : 27988, "target" : 34963}, {"buffer" : 0, "byteOffset" : 27992, "byteLength" : 167424, "byteStride" : 32, "target" : 34962}, {"buffer" : 0, "byteOffset" : 195420, "byteLength" : 112896, "byteStride" : 32, "target" : 34962}, {"buffer" : 0, "byteOffset" : 308320, "byteLength" : 96, "byteStride" : 32, "target" : 34962}, {"buffer" : 0, "byteOffset" : 308420, "byteLength" : 167328, "byteStride" : 32, "target" : 34962}], "meshes" : [{"primitives" : [{"attributes" : {"POSITION" : 1, "TEXCOORD_0" : 2, "NORMAL" : 3}, "indices" : 0, "mode" : 4}, {"attributes" : {"POSITION" : 5, "TEXCOORD_0" : 6, "NORMAL" : 7}, "indices" : 4, "mode" : 4}, {"attributes" : {"POSITION" : 9, "TEXCOORD_0" : 10, "NORMAL" : 11}, "indices" : 8, "mode" : 4}, {"attributes" : {"POSITION" : 13, "TEXCOORD_0" : 14, "NORMAL" : 15}, "indices" : 12, "mode" : 4}], "name" : ""}], "nodes" : [{"mesh" : 0, "name" : ""}], "scene" : 0, "scenes" : [{"nodes" : [0]}]}