{"accessors" : [{"bufferView" : 0, "byteOffset" : 0, "componentType" : 5123, "count" : 4413, "type" : "SCALAR", "max" : [3856], "min" : [0]}, {"bufferView" : 1, "byteOffset" : 0, "componentType" : 5126, "count" : 3857, "type" : "VEC3", "max" : [3207.13818359375, 1103.0035400390625, 0], "min" : [163.6595916748047, 70.56494140625, 0], "name" : "POSITION"}, {"bufferView" : 1, "byteOffset" : 12, "componentType" : 5126, "count" : 3857, "type" : "VEC2", "max" : [1, -0], "min" : [0, -1], "name" : "TEXCOORD_0"}, {"bufferView" : 1, "byteOffset" : 20, "componentType" : 5126, "count" : 3857, "type" : "VEC3", "max" : [0, -0, 1.0000044107437134], "min" : [0, -0, 1.0000044107437134], "name" : "NORMAL"}, {"bufferView" : 0, "byteOffset" : 8828, "componentType" : 5123, "count" : 2988, "type" : "SCALAR", "max" : [2489], "min" : [0]}, {"bufferView" : 2, "byteOffset" : 0, "componentType" : 5126, "count" : 2490, "type" : "VEC3", "max" : [3207.13818359375, 1103.0035400390625, 0], "min" : [163.6595916748047, 70.56494140625, -1032.4952392578125], "name" : "POSITION"}, {"bufferView" : 2, "byteOffset" : 12, "componentType" : 5126, "count" : 2490, "type" : "VEC2", "max" : [1, -0], "min" : [-0, -1], "name" : "TEXCOORD_0"}, {"bufferView" : 2, "byteOffset" : 20, "componentType" : 5126, "count" : 2490, "type" : "VEC3", "max" : [1.0000044107437134, 1.0000044107437134, 0], "min" : [-1.0000044107437134, -1.0000044107437134, 0], "name" : "NORMAL"}, {"bufferView" : 0, "byteOffset" : 14804, "componentType" : 5123, "count" : 3, "type" : "SCALAR", "max" : [0], "min" : [0]}, {"bufferView" : 3, "byteOffset" : 0, "componentType" : 5126, "count" : 1, "type" : "VEC3", "max" : [433.17718505859375, 70.6243896484375, 0], "min" : [433.17718505859375, 70.6243896484375, 0], "name" : "POSITION"}, {"bufferView" : 3, "byteOffset" : 12, "componentType" : 5126, "count" : 1, "type" : "VEC2", "max" : [0.08855599910020828, -5.8000001445179805E-05], "min" : [0.08855599910020828, -5.8000001445179805E-05], "name" : "TEXCOORD_0"}, {"bufferView" : 3, "byteOffset" : 20, "componentType" : 5126, "count" : 1, "type" : "VEC3", "max" : [0, -0, 1.0000044107437134], "min" : [0, -0, 1.0000044107437134], "name" : "NORMAL"}, {"bufferView" : 0, "byteOffset" : 14812, "componentType" : 5123, "count" : 4410, "type" : "SCALAR", "max" : [3847], "min" : [0]}, {"bufferView" : 4, "byteOffset" : 0, "componentType" : 5126, "count" : 3848, "type" : "VEC3", "max" : [3207.13818359375, 1103.0035400390625, -1032.4952392578125], "min" : [163.6595916748047, 70.56494140625, -1032.4952392578125], "name" : "POSITION"}, {"bufferView" : 4, "byteOffset" : 12, "componentType" : 5126, "count" : 3848, "type" : "VEC2", "max" : [1, -0], "min" : [0, -1], "name" : "TEXCOORD_0"}, {"bufferView" : 4, "byteOffset" : 20, "componentType" : 5126, "count" : 3848, "type" : "VEC3", "max" : [0, -0, -1.0000044107437134], "min" : [0, -0, -1.0000044107437134], "name" : "NORMAL"}], "asset" : {"generator" : "Aspose.3D 23.2", "version" : "2.0"}, "buffers" : [{"uri" : "data:application/octet-stream;base64,", "byteLength" : 401700}], "bufferViews" : [{"buffer" : 0, "byteOffset" : 0, "byteLength" : 23632, "target" : 34963}, {"buffer" : 0, "byteOffset" : 23636, "byteLength" : 141216, "byteStride" : 32, "target" : 34962}, {"buffer" : 0, "byteOffset" : 164856, "byteLength" : 95616, "byteStride" : 32, "target" : 34962}, {"buffer" : 0, "byteOffset" : 260476, "byteLength" : 96, "byteStride" : 32, "target" : 34962}, {"buffer" : 0, "byteOffset" : 260576, "byteLength" : 141120, "byteStride" : 32, "target" : 34962}], "meshes" : [{"primitives" : [{"attributes" : {"POSITION" : 1, "TEXCOORD_0" : 2, "NORMAL" : 3}, "indices" : 0, "mode" : 4}, {"attributes" : {"POSITION" : 5, "TEXCOORD_0" : 6, "NORMAL" : 7}, "indices" : 4, "mode" : 4}, {"attributes" : {"POSITION" : 9, "TEXCOORD_0" : 10, "NORMAL" : 11}, "indices" : 8, "mode" : 4}, {"attributes" : {"POSITION" : 13, "TEXCOORD_0" : 14, "NORMAL" : 15}, "indices" : 12, "mode" : 4}], "name" : ""}], "nodes" : [{"mesh" : 0, "name" : ""}], "scene" : 0, "scenes" : [{"nodes" : [0]}]}