{
  "accessors": [
    {
      "bufferView": 2,
      "componentType": 5126,
      "count": 65532,
      "max": [
        0.9854680299758911,
        0.7176345586776733,
        0.9700241088867188
      ],
      "min": [
        -0.9555101990699768,
        -0.820470929145813,
        -0.9800229072570801
      ],
      "type": "VEC3"
    },
    {
      "bufferView": 2,
      "byteOffset": 786384,
      "componentType": 5126,
      "count": 65532,
      "max": [
        0.999175488948822,
        0.9999973177909851,
        0.9999154210090637
      ],
      "min": [
        -0.9991827011108398,
        -0.9999955892562866,
        -0.9998819231987
      ],
      "type": "VEC3"
    },
    {
      "bufferView": 1,
      "componentType": 5126,
      "count": 65532,
      "max": [
        1.0000001192092896,
        1.0
      ],
      "min": [
        0.4999999701976776,
        0.1953122615814209
      ],
      "type": "VEC2"
    },
    {
      "bufferView": 0,
      "componentType": 5125,
      "count": 380586,
      "type": "SCALAR"
    },
    {
      "bufferView": 2,
      "byteOffset": 1572768,
      "componentType": 5126,
      "count": 65532,
      "max": [
        0.9995248913764954,
        0.7316881418228149,
        0.9800229072570801
      ],
      "min": [
        -0.955510139465332,
        -0.8204709887504578,
        -0.8403860330581665
      ],
      "type": "VEC3"
    },
    {
      "bufferView": 2,
      "byteOffset": 2359152,
      "componentType": 5126,
      "count": 65532,
      "max": [
        0.9998912811279297,
        0.9999972581863403,
        1.0
      ],
      "min": [
        -0.9999080896377563,
        -0.9999902844429016,
        -1.0
      ],
      "type": "VEC3"
    },
    {
      "bufferView": 1,
      "byteOffset": 524256,
      "componentType": 5126,
      "count": 65532,
      "max": [
        1.0000001192092896,
        1.0
      ],
      "min": [
        0.0,
        0.031249821186065674
      ],
      "type": "VEC2"
    },
    {
      "bufferView": 0,
      "byteOffset": 1522344,
      "componentType": 5125,
      "count": 374124,
      "type": "SCALAR"
    },
    {
      "bufferView": 2,
      "byteOffset": 3145536,
      "componentType": 5126,
      "count": 17072,
      "max": [
        0.9909186363220215,
        0.7289812564849854,
        0.8670938611030579
      ],
      "min": [
        -0.6304193139076233,
        -0.7922345399856567,
        -0.7479194402694702
      ],
      "type": "VEC3"
    },
    {
      "bufferView": 2,
      "byteOffset": 3350400,
      "componentType": 5126,
      "count": 17072,
      "max": [
        0.9998912215232849,
        0.9999756217002869,
        0.9992075562477112
      ],
      "min": [
        -0.9995027184486389,
        -0.9999327063560486,
        -0.9984812140464783
      ],
      "type": "VEC3"
    },
    {
      "bufferView": 1,
      "byteOffset": 1048512,
      "componentType": 5126,
      "count": 17072,
      "max": [
        1.0000001192092896,
        1.0
      ],
      "min": [
        0.0,
        0.031249821186065674
      ],
      "type": "VEC2"
    },
    {
      "bufferView": 0,
      "byteOffset": 3018840,
      "componentType": 5125,
      "count": 82638,
      "type": "SCALAR"
    },
    {
      "bufferView": 2,
      "byteOffset": 3555264,
      "componentType": 5126,
      "count": 11036,
      "max": [
        0.10565486550331116,
        0.906875491142273,
        0.10278742015361786
      ],
      "min": [
        -0.10381145775318146,
        0.5872220396995544,
        -0.10278742015361786
      ],
      "type": "VEC3"
    },
    {
      "bufferView": 2,
      "byteOffset": 3687696,
      "componentType": 5126,
      "count": 11036,
      "max": [
        0.9996964931488037,
        0.9999784231185913,
        0.9999578595161438
      ],
      "min": [
        -0.9999896287918091,
        -0.9991025328636169,
        -0.9999577403068542
      ],
      "type": "VEC3"
    },
    {
      "bufferView": 1,
      "byteOffset": 1185088,
      "componentType": 5126,
      "count": 11036,
      "max": [
        0.9921876788139343,
        1.0
      ],
      "min": [
        0.0,
        -1.1920928955078125e-07
      ],
      "type": "VEC2"
    },
    {
      "bufferView": 0,
      "byteOffset": 3349392,
      "componentType": 5125,
      "count": 50688,
      "type": "SCALAR"
    },
    {
      "bufferView": 2,
      "byteOffset": 3820128,
      "componentType": 5126,
      "count": 65440,
      "max": [
        0.967123806476593,
        0.6102160811424255,
        0.9420950412750244
      ],
      "min": [
        -0.8635320067405701,
        -0.5864887237548828,
        -0.9420951008796692
      ],
      "type": "VEC3"
    },
    {
      "bufferView": 2,
      "byteOffset": 4605408,
      "componentType": 5126,
      "count": 65440,
      "max": [
        0.9997052550315857,
        0.9999985098838806,
        0.9998536705970764
      ],
      "min": [
        -0.9997085332870483,
        -0.9999984502792358,
        -0.9998537302017212
      ],
      "type": "VEC3"
    },
    {
      "bufferView": 1,
      "byteOffset": 1273376,
      "componentType": 5126,
      "count": 65440,
      "max": [
        1.0000001192092896,
        1.0
      ],
      "min": [
        0.0,
        -1.1920928955078125e-07
      ],
      "type": "VEC2"
    },
    {
      "bufferView": 0,
      "byteOffset": 3552144,
      "componentType": 5125,
      "count": 379296,
      "type": "SCALAR"
    }
  ],
  "asset": {
    "extras": {
      "author": "yezenzeynberekat (https://sketchfab.com/zeynith)",
      "license": "CC-BY-4.0 (http://creativecommons.org/licenses/by/4.0/)",
      "source": "https://sketchfab.com/3d-models/jack-o-lantern-pumpkin-6ed9305794f54a2388cc05e1328b09b1",
      "title": "Jack-O-Lantern (pumpkin)"
    },
    "generator": "Sketchfab-15.38.0",
    "version": "2.0"
  },
  "bufferViews": [
    {
      "buffer": 0,
      "byteLength": 5069328,
      "name": "floatBufferViews",
      "target": 34963
    },
    {
      "buffer": 0,
      "byteLength": 1796896,
      "byteOffset": 5069328,
      "byteStride": 8,
      "name": "floatBufferViews",
      "target": 34962
    },
    {
      "buffer": 0,
      "byteLength": 5390688,
      "byteOffset": 6866224,
      "byteStride": 12,
      "name": "floatBufferViews",
      "target": 34962
    }
  ],
  "buffers": [
    {
      "byteLength": 12256912,
      "uri": "scene.bin"
    }
  ],
  "extensionsUsed": [
    "KHR_materials_emissive_strength",
    "KHR_materials_specular"
  ],
  "materials": [
    {
      "doubleSided": true,
      "name": "Material.001",
      "pbrMetallicRoughness": {
        "baseColorFactor": [
          0.7999999999999999,
          0.18081200000000003,
          0.0,
          1.0
        ],
        "metallicFactor": 0.0,
        "roughnessFactor": 0.3066354086217613
      }
    },
    {
      "doubleSided": true,
      "name": "Material.002",
      "pbrMetallicRoughness": {
        "baseColorFactor": [
          0.145188,
          0.8,
          0.0,
          1.0
        ],
        "metallicFactor": 0.0,
        "roughnessFactor": 0.5
      }
    },
    {
      "doubleSided": true,
      "emissiveFactor": [
        1.0,
        0.3157415563864684,
        0.0
      ],
      "extensions": {
        "KHR_materials_emissive_strength": {
          "emissiveStrength": 10.0
        },
        "KHR_materials_specular": {
          "specularColorFactor": [
            1.0,
            1.0,
            1.0
          ],
          "specularFactor": 0.6507385858612157
        }
      },
      "name": "Material.003",
      "pbrMetallicRoughness": {
        "baseColorFactor": [
          0.0060859176743033195,
          0.00511160426083456,
          0.00511160426083456,
          1.0
        ],
        "roughnessFactor": 0.0
      }
    }
  ],
  "meshes": [
    {
      "name": "Object_0",
      "primitives": [
        {
          "attributes": {
            "NORMAL": 1,
            "POSITION": 0,
            "TEXCOORD_0": 2
          },
          "indices": 3,
          "material": 0,
          "mode": 4
        }
      ]
    },
    {
      "name": "Object_1",
      "primitives": [
        {
          "attributes": {
            "NORMAL": 5,
            "POSITION": 4,
            "TEXCOORD_0": 6
          },
          "indices": 7,
          "material": 0,
          "mode": 4
        }
      ]
    },
    {
      "name": "Object_2",
      "primitives": [
        {
          "attributes": {
            "NORMAL": 9,
            "POSITION": 8,
            "TEXCOORD_0": 10
          },
          "indices": 11,
          "material": 0,
          "mode": 4
        }
      ]
    },
    {
      "name": "Object_3",
      "primitives": [
        {
          "attributes": {
            "NORMAL": 13,
            "POSITION": 12,
            "TEXCOORD_0": 14
          },
          "indices": 15,
          "material": 1,
          "mode": 4
        }
      ]
    },
    {
      "name": "Object_4",
      "primitives": [
        {
          "attributes": {
            "NORMAL": 17,
            "POSITION": 16,
            "TEXCOORD_0": 18
          },
          "indices": 19,
          "material": 2,
          "mode": 4
        }
      ]
    }
  ],
  "nodes": [
    {
      "children": [
        1
      ],
      "matrix": [
        -2.220446049250313e-16,
        -6.123234262925839e-17,
        1.0,
        0.0,
        1.0,
        -1.6081226229577296e-16,
        2.2204460492503128e-16,
        0.0,
        1.6081226229577292e-16,
        1.0,
        6.123234262925839e-17,
        0.0,
        0.0,
        0.0,
        0.0,
        1.0
      ],
      "name": "Sketchfab_model"
    },
    {
      "children": [
        2
      ],
      "name": "root"
    },
    {
      "children": [
        3
      ],
      "matrix": [
        1.0,
        0.0,
        0.0,
        0.0,
        0.0,
        2.220446049250313e-16,
        1.0,
        0.0,
        0.0,
        -1.0,
        2.220446049250313e-16,
        0.0,
        0.0,
        0.0,
        0.0,
        1.0
      ],
      "name": "GLTF_SceneRootNode"
    },
    {
      "children": [
        4,
        5,
        6,
        7,
        8
      ],
      "matrix": [
        1.1546573711437993,
        0.0,
        -0.06429783452419359,
        0.0,
        0.0,
        1.1564462184906006,
        0.0,
        0.0,
        0.06429783452419359,
        0.0,
        1.1546573711437993,
        0.0,
        10.596366882324219,
        0.6233254671096802,
        -4.932302474975586,
        1.0
      ],
      "name": "Sphere.001_8"
    },
    {
      "mesh": 0,
      "name": "Object_4"
    },
    {
      "mesh": 1,
      "name": "Object_5"
    },
    {
      "mesh": 2,
      "name": "Object_6"
    },
    {
      "mesh": 3,
      "name": "Object_7"
    },
    {
      "mesh": 4,
      "name": "Object_8"
    }
  ],
  "scene": 0,
  "scenes": [
    {
      "name": "Sketchfab_Scene",
      "nodes": [
        0
      ]
    }
  ]
}
